<?xml version="1.0" encoding="utf-8"?>
<!-- Generator: Adobe Illustrator 25.3.1, SVG Export Plug-In . SVG Version: 6.00 Build 0)  -->
<svg version="1.1" xmlns="http://www.w3.org/2000/svg" xmlns:xlink="http://www.w3.org/1999/xlink" x="0px" y="0px"
	 viewBox="0 0 307.7 136.4" style="enable-background:new 0 0 307.7 136.4;" xml:space="preserve">
<style type="text/css">
	.st0{fill-rule:evenodd;clip-rule:evenodd;fill:#FFFFFF;stroke:#000000;stroke-miterlimit:10;}
	.st1{fill-rule:evenodd;clip-rule:evenodd;}
</style>
<g id="Body">
	<g id="svgg">
		<path id="path0" class="st0" d="M167,6.9c-17.3,1.9-33.3,5.9-46,11.4c-0.7,0.3-2.7,1.2-4.6,2c-1.9,0.8-4.7,2.1-6.2,3
			c-2.6,1.4-3.3,1.6-7.6,2c-10.6,1.1-14.5,1.6-23.5,3.4c-8.2,1.7-14,3.2-23.3,6.3C30.5,43.2,5.2,61.1,5.2,70.6
			c0,6.9,11.2,19.8,24.4,28.1c17.8,11.1,38.2,16.7,66.6,18.2l9.6,0.5l2.5,2.2c6.5,5.5,15.4,9.4,22.3,9.8l2,0.1l1.3-2.6
			c1.5-3.1,2.7-6.5,3.3-9.8l0.5-2.4l6.7-1.1c3.7-0.6,7.9-1.3,9.5-1.7c1.5-0.3,3.5-0.8,4.4-1c0.9-0.2,2.9-0.6,4.6-1
			c12.1-2.6,40.6-11,46.3-13.6c0.7-0.3,1.4-0.6,1.5-0.6c0.5,0,13.6-4.9,17.2-6.4c0.4-0.2,4.1-1.7,8.2-3.4c4.1-1.7,8.1-3.4,9-3.8
			c0.9-0.4,3.5-1.6,5.8-2.6c2.3-1,4.8-2.2,5.5-2.5c1.3-0.6,1.3-0.6,3.2,1.1c10.6,9.8,23.8,17.3,39.6,22.6c4.3,1.4,5.4,1.4,4.5-0.1
			c-0.2-0.4-0.9-2.6-1.4-4.9c-4.3-18.5-4.1-35,0.6-54.1c1.1-4.4,1.3-4.3-4.5-2.3c-16.1,5.4-27.1,11.4-39.4,21.4l-1.3,1.1l-8.9-4.4
			c-4.9-2.4-11.2-5.4-14.1-6.7c-2.9-1.2-5.6-2.4-6-2.6c-8.8-4.1-29.4-11.2-42.4-14.6c-1.3-0.3-2.6-0.7-2.8-0.8
			c-0.2-0.1-1.6-3.4-2.9-7.5c-1.4-4-3.3-9.9-4.4-12.9l-1.9-5.6l-2-0.1C171.1,6.5,168.7,6.7,167,6.9"/>
	</g>
</g>
<g id="Layer_2">
	<path id="Eye" class="st1" d="M58.1,60.9c1.7,1.3,2.9,4.1,2.5,6c-1.5,7.8-12.8,6.9-12.8-1C47.8,60.8,54,57.8,58.1,60.9"/>
	<path id="Opercle" class="st1" d="M88.6,56.8c9.5,13.2,7.8,32.4-4,43.7c-1.9,1.9-1.9,1.6,1.4-3.8c6.8-11.4,8.1-20.3,4.8-31.6
		c-0.6-2.1-4.1-8.8-6-11.8C81.6,48.7,84.8,51.5,88.6,56.8"/>
</g>
</svg>
