<svg id="Layer_1" data-name="Layer 1" xmlns="http://www.w3.org/2000/svg" viewBox="0 0 543.01 667.36"><defs><style>.cls-1{fill:none;stroke:#00a651;stroke-miterlimit:10;}</style></defs><path class="cls-1" d="M639,441c.46-2.45-25.2-10.91-48.62-16.2-9.11-2.06-16.21-3.26-25.66-8.1-10.12-5.19-9.11-7.48-16.66-11.26-15.31-7.67-38-7.58-52.22,1.8-4.06,2.69-7,5.84-14.07,8.91-7.84,3.39-11,2.43-14.29,5.95-5.12,5.41-1.06,11.43-5.4,16.2-7.4,8.15-26.2,1.64-27,1.35-13.15-4.7-20.83-15.08-25.66-21.6-9.43-12.76-8.5-19.11-17.55-25.66-7.87-5.7-12.25-2.94-18.91-6.76-12.5-7.15-12-24.48-16.21-51.31-8.12-51.37-20.12-51.28-14.85-71.58,5.18-20,20.22-35.08,18.91-48.62-.64-6.55-4.06-25.66-4.06-25.66a12.68,12.68,0,0,1-7.39-2.1c-9.07-6.44-2.47-24-.71-54.62,1.71-29.65-3.36-30.29,0-55.37,2.27-16.92,6.7-31.39,4-32.41-3-1.16-9.92,17.15-16.2,16.21-7.37-1.1-5-34.7-9.46-35.12-2.93-.27-5.11,14-9.45,14-5.27,0-8.34-21-11.7-20.71s-2.42,22.54-7.21,23.41c-5,.9-12-21.84-17.1-20.71-2.76.61-1.33,7.34-6.3,10.81-5.2,3.62-10.72-.95-15.31,2.7-3.58,2.85-1,6.25-4.5,11.7C251.15,53,245.34,50.67,239.27,58c-4,4.82-2.44,7-6.3,11.7s-11.91,4.76-16.21,9c-4.95,4.9.37,10.36-4.5,18-4.65,7.31-10.89,4.5-14.85,11.48-4.44,7.82-.23,13.87-4,20-3.41,5.49-6.31,4.89-8.11,9.91-2.75,7.66,2.11,11.47,0,20.7-1.89,8.32-6.61,8.67-6.3,14.41.47,8.47,11,11.38,9.9,17.1-.79,4.27-6.92,4.21-11.7,9-6.08,6.09-4.87,14.91-4.5,27.91.56,19.53-2.79,39-3.6,58.52a34.55,34.55,0,0,1,3.6,13.5,33.83,33.83,0,0,1-1.48,11.59c-2.3,7.87-12.21,51.75,5.3,70.12,8.7,9.12,20.18,7.77,23.19,18.23,1.19,4.14,1,10-1.8,11.7-3.11,1.87-7.43-2.85-10.81-.9-3.58,2.07-.49,8.4-4.5,12.61-3.86,4.05-9.08.68-13.5,4.5-4.08,3.52-1,7.86-4.5,15.3-.25.52-5.3,10.78-14.41,12.61,0,0-4.61.93-18-3.6,0,0-7,5.73-6.3,10.8.44,3.14,3.93,6.63,6.3,9h0c-2.41-3.52,4.47,7.67,8.11,9.9a15,15,0,0,0,9,1.8c11.8-.74,19.4-12.71,20.71-11.7,1.48,1.14-10.69,14.67-7.21,19.8,4.07,6,28.53-.74,30.39-1.73a.39.39,0,0,1,.23-.07c1.39.07.11,8.88,3.6,11.71,4,3.25,13.16-2.47,13.5-1.8s-14.22,6.38-24.31,16.2c-10.25,10-8.63,17.36-19.8,47.72-9.74,26.45-14.82,39.75-25.21,43.21-8.57,2.86-14.81-1.7-27.91,3.61-7.26,2.93-14.23,7.92-13.51,9.9,1.21,3.32,24-2.22,24.31-.9s-27.48,7.91-27,13.5c.24,2.77,7.2,2.94,8.1,7.21s-5.36,6.17-6.3,12.6c-.7,4.83,2.41,6.57,4.5,13.51,3.29,10.88-1,17.89.9,18.9,3.79,2.06,27.06-23.87,47.72-64.82,24.84-49.24,17.67-64.25,41.42-87.33,7.85-7.64,26.82-26.07,53.12-28.81,8.48-.89,14.23.23,28.81-1.8,16.36-2.28,27.7-6.28,36-9,32.23-10.59,48.66-14.88,63-16.2,15.52-1.43,30.07-2.77,46.82,3.6,14.94,5.68,17.23,12,33.31,16.2,6.95,1.81,28.51,7.59,37.81-2.7,8-8.84-1.44-20.92,7.21-32.41,3.94-5.23,8.4-6,37.81-15.3,20.65-6.5,21.69-7,22.31-7.17l.2,0c15.18-2.43,33.76-.45,33.76-.45,14.49,1.55,22.78,3.7,39.16,3.6C636.21,441.91,638.87,441.8,639,441Z" transform="translate(-96.52 -17.83)"/></svg>